Coordinates
version=1
nRows=21
nColumns=33
inDegrees=yes

Units are S.I. units (second, meters, Newtons, ...)
Angles are in degrees.

endheader
time	ground_thorax_rot_x	ground_thorax_rot_y	ground_thorax_rot_z	ground_thorax_tx	ground_thorax_ty	ground_thorax_tz	clav_prot_r	clav_elev_r	scapula_abduction_r	scapula_elevation_r	scapula_upward_rot_r	scapula_winging_r	shoulder_elv_r	plane_of_elev_r	axial_rot_r	elbow_flexion_r	pro_sup_r	wrist_flex_r	wrist_dev_r	clav_prot_l	clav_elev_l	scapula_abduction_l	scapula_elevation_l	scapula_upward_rot_l	scapula_winging_l	shoulder_elv_l	plane_of_elev_l	axial_rot_l	elbow_flexion_l	pro_sup_l	wrist_flex_l	wrist_dev_l
      6.37000000	     38.43963928	     11.15233639	     14.63303502	    -98.05791523	    773.46001034	      9.02372438	     18.03991743	     39.45824283	     41.95907179	     44.39689004	    -36.80365966	  -2959.46086541	  -4072.41405624	    143.64497985	    179.99999979	   1448.60506585	     47.72766861	     21.33923137	     13.02664139	      5.49522225	    -45.00000000	    -39.75861517	     45.00000000	    -40.37595300	    804.78913047	  -2976.34134818	    134.11716179	   -179.99999979	    728.07934402	   -323.65555875	      9.01723025	    -20.56427341
      6.38000000	     38.50485338	     11.82099349	     15.38407781	    -99.70097671	    774.21850808	      8.84082907	     18.30145372	     39.62400373	     41.68359748	     45.00000000	    -37.99577314	  -2959.12969549	  -4072.08586447	    143.49934483	    179.99999979	   1448.70759807	     47.55079822	     21.36497881	     12.97804031	      5.77284027	    -45.00000000	    -39.12553158	     45.00000000	    -42.06662762	    804.78083047	  -2975.97272085	    133.97159400	   -179.99999979	    728.12830733	   -323.87466379	      9.03412688	    -20.60492740
      6.39000000	     38.59812134	     11.40329061	     14.88696574	   -101.39491640	    775.03040578	      8.65486785	     17.86591162	     39.29619292	     41.81611236	     45.00000000	    -37.50575403	  -2959.43326701	  -4072.24535967	    143.57343773	    179.99999979	   1448.92780542	     47.50355286	     21.44380602	     12.97730083	      5.36871424	    -45.00000000	    -39.33554166	     45.00000000	    -41.00484833	    805.10926244	  -2976.25764906	    134.12209024	   -179.99999979	    728.23763223	   -323.98860819	      8.93878172	    -20.64520114
      6.40000000	     38.59007451	     11.52170873	     14.90596763	   -103.14970915	    775.89650157	      8.46431331	     17.93456169	     39.56728976	     41.68050577	     45.00000000	    -37.82603423	  -2959.36736679	  -4071.87124165	    143.53455560	    179.99999979	   1449.02712364	     47.47681023	     21.46422471	     12.93983004	      5.51753018	    -45.00000000	    -39.27719679	     45.00000000	    -41.21931119	    805.22599294	  -2975.98593123	    134.17525253	   -179.99999979	    728.33155743	   -324.09929273	      8.89790421	    -20.68283939
      6.41000000	     38.71742837	     11.02392347	     14.23520310	   -104.95128840	    776.81164969	      8.27063640	     17.60541988	     38.70648075	     42.07740254	     45.00000000	    -37.47914372	  -2959.93140109	  -4072.16619091	    143.40552012	    179.99999979	   1449.13711808	     47.48289488	     21.66560214	     13.04401109	      5.38725426	    -45.00000000	    -39.56611910	     45.00000000	    -40.45153656	    805.69547864	  -2976.03111073	    133.96095665	   -179.99999979	    728.47857707	   -324.17467534	      8.91981819	    -20.81495252
      6.42000000	     38.48596513	     12.04591130	     15.39962214	   -106.80923223	    777.77737496	      8.07329725	     18.02791355	     39.18177881	     41.47033257	     45.00000000	    -39.07752279	  -2959.58368775	  -4071.20538706	    143.25664271	    179.99999979	   1449.31589139	     47.41010316	     21.57629951	     12.89903893	      5.88997221	    -45.00000000	    -38.88884759	     45.00000000	    -42.76724824	    805.63855491	  -2975.22744096	    133.93772844	   -179.99999979	    728.66482304	   -324.41463301	      8.84203880	    -20.78173597
      6.43000000	     38.57904425	     11.59963885	     14.74024144	   -108.71521873	    778.79134276	      7.87416993	     17.76800799	     39.39537000	     41.51598113	     45.00000000	    -38.48518560	  -2959.67710123	  -4071.21291480	    143.35733464	    179.99999979	   1449.41840636	     47.40847107	     21.61401519	     12.84458214	      5.65100797	    -45.00000000	    -39.22920576	     45.00000000	    -41.61705984	    805.88748290	  -2975.40353369	    134.09904783	   -179.99999979	    728.70470481	   -324.53112296	      8.82406597	    -20.83845311
      6.44000000	     38.53447437	     12.02648522	     15.25041354	   -110.67689544	    779.85348301	      7.67388956	     17.84041488	     38.92291335	     41.48169019	     45.00000000	    -39.38270488	  -2959.93844249	  -4070.89495077	    143.14917786	    179.99999979	   1449.56180292	     47.38341915	     21.71327874	     12.84526432	      6.00316467	    -45.00000000	    -38.75623132	     45.00000000	    -42.98010180	    806.16204341	  -2974.89465443	    133.81467810	   -179.99999979	    728.86566140	   -324.75391322	      8.78080217	    -20.86880986
      6.45000000	     38.64599436	     11.58022948	     14.53650870	   -112.68715730	    780.96085006	      7.47447711	     17.55735401	     39.28341686	     41.48640342	     45.00000000	    -38.73406546	  -2959.97866453	  -4070.81290522	    143.29577492	    179.99999979	   1449.67845695	     47.39302341	     21.72658127	     12.75508365	      5.66080827	    -45.00000000	    -39.17879387	     45.00000000	    -41.56922235	    806.38041773	  -2975.10267293	    134.09765093	   -179.99999979	    728.90654865	   -324.85731042	      8.75236431	    -20.92924092
      6.46000000	     38.58695062	     11.99486367	     15.00295849	   -114.74925152	    782.11190532	      7.27638269	     17.69646101	     38.87762767	     41.36186660	     45.00000000	    -39.61942999	  -2960.19018391	  -4070.44481560	    143.04197851	    179.99999979	   1449.81814957	     47.37353968	     21.80382996	     12.75264462	      6.12834516	    -45.00000000	    -38.77666758	     45.00000000	    -43.04299861	    806.63227796	  -2974.53166071	    133.78533444	   -179.99999979	    729.09396272	   -325.03446705	      8.68719163	    -20.94122407
      6.47000000	     38.68021466	     11.62209446	     14.35587037	   -116.85080232	    783.30148744	      7.08078284	     17.45462760	     39.18085794	     41.37497838	     45.00000000	    -39.10741548	  -2960.23914756	  -4070.35548980	    143.18345596	    179.99999979	   1449.93507939	     47.38455415	     21.81388872	     12.64120014	      5.80765670	    -45.00000000	    -39.17389637	     45.00000000	    -41.77571096	    806.86408336	  -2974.68424346	    134.05715960	   -179.99999979	    729.15368572	   -325.16053291	      8.67840707	    -21.01109021
      6.48000000	     38.74875364	     11.41116425	     14.02358700	   -118.99709002	    784.53002260	      6.88658736	     17.28977364	     39.16406747	     41.43534661	     45.00000000	    -38.87300067	  -2960.42567684	  -4070.31810271	    143.25580506	    179.99999979	   1450.06659987	     47.39493718	     21.86776683	     12.56366989	      5.77722330	    -45.00000000	    -39.35499256	     45.00000000	    -41.12036349	    807.16827135	  -2974.78049057	    134.19352146	   -179.99999979	    729.19683631	   -325.26356686	      8.62944176	    -21.05222079
      6.49000000	     38.66797809	     11.98184521	     14.65760311	   -121.17640879	    785.78973342	      6.69408044	     17.47489897	     38.73534910	     41.20505498	     45.00000000	    -40.09468285	  -2960.61660872	  -4069.76733138	    142.88480634	    179.99999979	   1450.24711810	     47.38623932	     21.92000212	     12.52519746	      6.28809143	    -45.00000000	    -38.76847205	     45.00000000	    -43.07476525	    807.41094980	  -2974.02396228	    133.77520241	   -179.99999979	    729.42964379	   -325.56505544	      8.56239869	    -21.04261621
      6.50000000	     38.81807343	     11.41656229	     13.83855063	   -123.38391413	    787.07786374	      6.50290365	     17.07836639	     39.05049719	     41.32203734	     45.00000000	    -39.22575973	  -2960.72970719	  -4069.83946768	    143.13547052	    179.99999979	   1450.31689007	     47.40449535	     21.95774857	     12.41289172	      5.80131234	    -45.00000000	    -39.21859244	     45.00000000	    -41.30713549	    807.66553387	  -2974.39138583	    134.12635958	   -179.99999979	    729.37679652	   -325.76407514	      8.56496806	    -21.10749188
      6.51000000	     38.73725744	     11.92044095	     14.34158766	   -125.61708864	    788.38806892	      6.31344963	     17.29936114	     38.68516188	     41.09746741	     45.00000000	    -40.29974725	  -2960.91374936	  -4069.34372834	    142.80734763	    179.99999979	   1450.51219097	     47.38964666	     21.99589541	     12.35772020	      6.36033567	    -45.00000000	    -38.82087921	     45.00000000	    -43.01971775	    807.92482626	  -2973.68097908	    133.78503883	   -179.99999979	    729.63067377	   -326.17789283	      8.52476842	    -21.09728896
      6.52000000	     38.73185268	     12.01338418	     14.40710707	   -127.86557318	    789.71449309	      6.12705789	     17.22210618	     38.45419503	     41.17602570	     45.00000000	    -40.65450944	  -2961.12287695	  -4069.18966682	    142.80228102	    179.99999979	   1450.60707435	     47.38429618	     22.03271431	     12.25996676	      6.46618655	    -45.00000000	    -38.73129405	     45.00000000	    -43.19804250	    808.23048124	  -2973.51233432	    133.77277710	   -179.99999979	    729.63764079	   -326.71926518	      8.52428992	    -21.07873935
      6.53000000	     38.78561910	     11.96271731	     14.22629757	   -130.12673303	    791.05299455	      5.94508504	     17.20168385	     38.45193867	     41.09058919	     45.00000000	    -40.76116561	  -2961.27598848	  -4068.92860271	    142.72473821	    179.99999979	   1450.74512593	     47.37859785	     22.04375210	     12.15836070	      6.55333802	    -45.00000000	    -38.76049484	     45.00000000	    -43.13189012	    808.50018221	  -2973.37604809	    133.76034896	   -179.99999979	    729.70876357	   -327.24279328	      8.55414628	    -21.08035797
      6.54000000	     38.79757497	     11.98984944	     14.15332519	   -132.39144852	    792.39737232	      5.76951388	     17.11585210	     38.33131999	     41.07743182	     45.00000000	    -41.01165209	  -2961.44371022	  -4068.73683405	    142.68913840	    179.99999979	   1450.83765265	     47.36935440	     22.06993977	     12.06116653	      6.60799617	    -45.00000000	    -38.74612045	     45.00000000	    -43.21988865	    808.77194613	  -2973.19985843	    133.74730950	   -179.99999979	    729.74319998	   -327.82356755	      8.57385396	    -21.07630738
      6.55000000	     38.90523081	     11.41189248	     13.27486448	   -134.65663449	    793.74588331	      5.60172367	     16.68525713	     38.80489930	     41.09472155	     45.00000000	    -39.93041387	  -2961.46457991	  -4068.82999094	    142.99656490	    179.99999979	   1450.84843064	     47.39031750	     22.12252176	     11.99998921	      6.07203526	    -45.00000000	    -39.22398387	     45.00000000	    -41.51868738	    808.91916239	  -2973.44772193	    134.10808287	   -179.99999979	    729.66483315	   -328.18009880	      8.58499547	    -21.12398140
      6.56000000	     38.86026304	     11.96202291	     13.95982954	   -136.91998205	    795.09536086	      5.44295161	     16.90875727	     38.24072894	     40.98227328	     45.00000000	    -41.37494955	  -2961.74521337	  -4068.29894360	    142.59516719	    179.99999979	   1451.06206185	     47.35324584	     22.10401782	     11.84069342	      6.65160159	    -45.00000000	    -38.73515820	     45.00000000	    -43.15672324	    809.31384906	  -2972.93929031	    133.77597643	   -179.99999979	    729.80844002	   -328.84933263	      8.59372733	    -21.08634526
      6.57000000	     38.90167387	     11.88109830	     13.72387659	   -139.17509528	    796.44404926	      5.29412031	     16.90772705	     38.27507075	     40.90198898	     45.00000000	    -41.45902643	  -2961.86623558	  -4068.07574123	    142.55775121	    179.99999979	   1451.17452770	     47.31118428	     22.11454310	     11.77017980	      6.72527868	    -45.00000000	    -38.85748004	     45.00000000	    -43.06779430	    809.54713269	  -2972.75882487	    133.79435022	   -179.99999979	    729.89200766	   -329.46584519	      8.65116813	    -21.08692081
